#!OML:ASF I:\Actors\actors\Patient Classification 2\Patient 1\Session 1\actor1.ASF
:FULLY-SPECIFIED
:DEGREES
674
root -0.720375 18.7358 4.95412 13.5649 5.94418 -2.23159
lowerback 29.148 -1.6805 -4.54018
upperback 0.420273 -4.17394 -3.04152
thorax -14.8969 -1.62746 0.801188
lowerneck -6.71653 -18.6787 -16.5825
upperneck -9.32106 -23.8141 22.2213
head 3.07194 -11.7004 7.24532
rclavicle 7.95139e-016 1.59028e-014
rhumerus -46.825 18.9902 -99.6262
rradius 116.029
rwrist 13.5313
rhand 5.20692 -53.1474
rfingers 7.12502
rthumb 30.5673 -80.6304
lclavicle 7.95139e-016 1.59028e-014
lhumerus -60.8783 -10.7041 92.636
lradius 117.187
lwrist -8.50842
lhand 13.115 -15.9003
lfingers 7.12502
lthumb 38.0745 9.87858
rfemur -14.4461 1.1017 15.5234
rtibia 13.1017
rfoot -19.9311 -11.8812
rtoes -10.0046
lfemur -28.6391 -0.685808 -10.2836
ltibia 31.0422
lfoot -15.4663 5.09241
ltoes -58.4461
675
root -0.73288 18.7565 5.01229 13.0399 5.54069 -2.43545
lowerback 29.1513 -2.07708 -4.8168
upperback 0.3087 -4.81996 -3.21652
thorax -15.0018 -1.8946 1.01395
lowerneck -6.36457 -18.7846 -16.8522
upperneck -10.2253 -23.9085 22.8764
head 2.90445 -11.7887 7.50994
rclavicle -2.8625e-014 -9.54166e-015
rhumerus -46.0615 19.5463 -100.078
rradius 116.278
rwrist 11.5722
rhand 1.148 -51.4308
rfingers 7.12502
rthumb 26.6895 -79.5689
lclavicle -2.8625e-014 -9.54166e-015
lhumerus -62.0719 -9.4209 91.9538
lradius 118.018
lwrist -7.5899
lhand 13.5547 -15.4784
lfingers 7.12502
lthumb 38.4895 10.1859
rfemur -13.3413 1.55206 15.7223
rtibia 12.267
rfoot -19.497 -12.0975
rtoes -10.5281
lfemur -27.6709 -0.478734 -10.0326
ltibia 30.8781
lfoot -15.1544 5.3638
ltoes -58.489
676
root -0.736761 18.7711 5.05434 12.7053 5.20297 -2.52735
lowerback 29.0551 -2.4377 -4.95373
upperback 0.247898 -5.36621 -3.4161
thorax -15.0182 -2.13254 1.08062
lowerneck -6.4661 -18.4507 -16.9717
upperneck -10.7721 -23.368 23.1061
head 2.71767 -11.529 7.707
rclavicle 1.66979e-014 -7.95139e-015
rhumerus -45.4262 19.5497 -100.42
rradius 116.786
rwrist 9.4735
rhand -0.460157 -50.7662
rfingers 7.12502
rthumb 25.1495 -79.1295
lclavicle 1.66979e-014 -7.95139e-015
lhumerus -62.4442 -8.84211 91.4507
lradius 118.503
lwrist -6.77426
lhand 14.2905 -15.1121
lfingers 7.12502
lthumb 39.1834 10.3551
rfemur -12.5973 1.69247 15.7986
rtibia 11.6611
rfoot -18.9767 -12.1196
rtoes -11.1363
lfemur -27.0342 -0.421064 -9.9231
ltibia 30.7993
lfoot -14.9909 5.65511
ltoes -58.5661
677
root -0.743827 18.7766 5.08351 12.5474 4.97344 -2.57856
lowerback 28.6342 -2.66435 -5.51532
upperback 0.427985 -5.77676 -3.27834
thorax -14.5179 -2.29412 1.65748
lowerneck -7.16218 -17.7041 -16.841
upperneck -11.3034 -22.1699 22.7646
head 2.39307 -10.9116 7.78618
rclavicle -1.98785e-014 -6.83819e-014
rhumerus -44.6416 19.6279 -100.25
rradius 117.483
rwrist 7.59826
rhand -1.15072 -50.9097
rfingers 7.12502
rthumb 24.4877 -79.3642
lclavicle -1.98785e-014 -6.83819e-014
lhumerus -61.5908 -8.57965 91.28
lradius 118.658
lwrist -6.14876
lhand 15.3896 -14.964
lfingers 7.12502
lthumb 40.2183 10.1958
rfemur -12.21 1.7632 15.8658
rtibia 11.3576
rfoot -18.6806 -12.0669
rtoes -11.5523
lfemur -26.7275 -0.374328 -9.84954
ltibia 30.8425
lfoot -14.952 5.71861
ltoes -58.4965
678
root -0.751796 18.7704 5.09905 12.5028 4.83613 -2.57158
lowerback 28.452 -2.78996 -5.62846
upperback 0.503136 -5.96272 -3.32127
thorax -14.3286 -2.38089 1.72819
lowerneck -8.03049 -16.8715 -16.5261
upperneck -11.3543 -20.8944 21.8936
head 2.1286 -10.231 7.66111
rclavicle -3.81667e-014 7.95139e-015
rhumerus -44.5113 18.89 -100.143
rradius 118.422
rwrist 6.412
rhand -2.09144 -50.7146
rfingers 7.12502
rthumb 23.5857 -79.2882
lclavicle -3.81667e-014 7.95139e-015
lhumerus -60.2188 -9.52772 91.241
lradius 118.553
lwrist -5.64219
lhand 17.0099 -14.5457
lfingers 7.12502
lthumb 41.74 10.1309
rfemur -12.0881 1.80144 15.8899
rtibia 11.29
rfoot -18.6793 -11.9893
rtoes -11.6911
lfemur -26.6573 -0.316791 -9.85746
ltibia 30.9649
lfoot -15.0206 5.79474
ltoes -58.4433
679
root -0.758682 18.7548 5.09986 12.4688 4.77481 -2.55633
lowerback 28.3862 -2.74077 -5.72276
upperback 0.673716 -5.89875 -3.26072
thorax -14.0848 -2.35733 1.80844
lowerneck -9.12935 -15.9899 -15.9008
upperneck -11.1376 -19.5777 20.3857
head 1.86574 -9.5181 7.27711
rclavicle 5.56597e-014 -1.59028e-014
rhumerus -44.6529 17.931 -99.8022
rradius 119.487
rwrist 5.83209
rhand -2.71786 -50.4212
rfingers 7.12502
rthumb 22.9847 -79.0709
lclavicle 5.56597e-014 -1.59028e-014
lhumerus -58.007 -11.2248 91.5112
lradius 118.128
lwrist -5.29255
lhand 18.8147 -13.739
lfingers 7.12502
lthumb 43.4293 10.3535
rfemur -12.1414 1.76614 15.9279
rtibia 11.4684
rfoot -18.9593 -11.8675
rtoes -11.7075
lfemur -26.6982 -0.261779 -9.89539
ltibia 31.1284
lfoot -15.2369 5.90609
ltoes -58.4375
680
root -0.76143 18.7344 5.08549 12.4548 4.77145 -2.55468
lowerback 28.446 -2.56175 -5.62115
upperback 0.887911 -5.61094 -3.20962
thorax -13.8841 -2.24479 1.69711
lowerneck -10.0238 -15.0425 -15.2127
upperneck -10.9986 -18.2196 18.8561
head 1.56462 -8.80491 6.88386
rclavicle -2.54444e-014 9.54166e-015
rhumerus -45.1092 16.7065 -99.4089
rradius 120.599
rwrist 5.75285
rhand -3.47096 -50.5216
rfingers 7.12502
rthumb 22.2619 -79.2593
lclavicle -2.54444e-014 9.54166e-015
lhumerus -55.184 -13.648 91.8772
lradius 117.418
lwrist -5.1978
lhand 20.3054 -13.1454
lfingers 7.12502
lthumb 44.8195 10.4249
rfemur -12.3884 1.60764 15.994
rtibia 11.8841
rfoot -19.3521 -11.6726
rtoes -11.8518
lfemur -26.839 -0.25227 -9.94197
ltibia 31.3067
lfoot -15.6976 6.00598
ltoes -58.5483
681
root -0.762275 18.7115 5.05784 12.5222 4.81977 -2.4733
lowerback 28.5557 -2.30195 -5.35606
upperback 1.49333 -5.17297 -3.24841
thorax -14.0833 -2.08265 1.3491
lowerneck -10.8213 -14.0793 -14.6008
upperneck -10.7408 -16.8779 17.5937
head 1.3565 -8.10669 6.55721
rclavicle -5.48646e-014 -1.74931e-014
rhumerus -45.7916 15.4639 -99.0802
rradius 121.588
rwrist 5.58774
rhand -7.57381 -49.186
rfingers 7.12502
rthumb 18.3189 -78.3434
lclavicle -5.48646e-014 -1.74931e-014
lhumerus -51.9044 -16.6429 92.1467
lradius 116.488
lwrist -5.63978
lhand 21.4676 -12.9275
lfingers 7.12502
lthumb 45.8997 10.2087
rfemur -12.8342 1.45086 15.959
rtibia 12.4721
rfoot -19.7271 -11.5178
rtoes -12.3625
lfemur -27.1391 -0.300651 -10.0906
ltibia 31.5055
lfoot -16.2296 6.03499
ltoes -58.6496
682
root -0.765598 18.689 5.02329 12.6989 4.89457 -2.38038
lowerback 28.7708 -1.978 -5.08978
upperback 1.2922 -4.68759 -3.31322
thorax -13.6702 -1.87923 0.960414
lowerneck -11.5015 -13.1435 -14.0758
upperneck -10.1291 -15.6228 16.5396
head 1.30263 -7.45461 6.2694
rclavicle 5.64548e-014 -7.95139e-015
rhumerus -46.5343 14.6183 -98.8422
rradius 122.191
rwrist 4.84892
rhand -14.6102 -46.0033
rfingers 7.12502
rthumb 11.5407 -75.6656
lclavicle 5.64548e-014 -7.95139e-015
lhumerus -48.4166 -19.8964 92.2993
lradius 115.447
lwrist -6.91516
lhand 22.4571 -12.8808
lfingers 7.12502
lthumb 46.8168 9.86567
rfemur -13.5159 1.46016 15.885
rtibia 13.2681
rfoot -20.1323 -11.4486
rtoes -12.9506
lfemur -27.6179 -0.392573 -10.2198
ltibia 31.7599
lfoot -16.4968 6.11384
ltoes -58.5721
